<svg xmlns="http://www.w3.org/2000/svg" xmlns:xlink="http://www.w3.org/1999/xlink" width="3182" height="1080" viewBox="0 0 3182 1080">
  <defs>
    <clipPath id="clip-Encapsulated">
      <rect width="3182" height="1080"/>
    </clipPath>
  </defs>
  <g id="Encapsulated" clip-path="url(#clip-Encapsulated)">
    <rect width="3182" height="1080" fill="#38b2ac"/>
    <g id="Group_8" data-name="Group 8" transform="translate(284.26 -378.968)">
      <g id="Group_1" data-name="Group 1" transform="translate(711.166 166.968)">
        <rect id="Rectangle_1" data-name="Rectangle 1" width="589.889" height="1393.328" rx="169" transform="matrix(0.875, 0.485, -0.485, 0.875, 675.499, 0)" fill="#4fd1c5"/>
        <rect id="Rectangle_3" data-name="Rectangle 3" width="28.007" height="260.811" rx="14.003" transform="matrix(0.875, 0.485, -0.485, 0.875, 598.02, 230.886)" fill="#fff"/>
        <rect id="Rectangle_7" data-name="Rectangle 7" width="589.889" height="841.948" rx="169" transform="matrix(0.875, 0.485, -0.485, 0.875, 408.185, 482.248)" fill="#38b2ac"/>
        <rect id="Rectangle_11" data-name="Rectangle 11" width="28.007" height="127.78" rx="14.003" transform="matrix(0.875, 0.485, -0.485, 0.875, 657.804, 210.706)" fill="#fff"/>
      </g>
      <ellipse id="Ellipse_14" data-name="Ellipse 14" cx="24.5" cy="27.5" rx="24.5" ry="27.5" transform="translate(1189.74 779.968)" fill="#4fd1c5"/>
      <g id="Group_2" data-name="Group 2" transform="translate(1011.345 871.459)">
        <rect id="Rectangle_10" data-name="Rectangle 10" width="36.759" height="546.129" rx="18.379" transform="translate(534.751 0) rotate(30)" fill="#4fd1c5"/>
        <ellipse id="Ellipse_3" data-name="Ellipse 3" cx="29.5" cy="31" rx="29.5" ry="31" transform="translate(253.395 437.509)" fill="#4fd1c5"/>
        <rect id="Rectangle_13" data-name="Rectangle 13" width="36.759" height="283.567" rx="18.379" transform="translate(196.921 402.595) rotate(30)" fill="#4fd1c5"/>
        <rect id="Rectangle_14" data-name="Rectangle 14" width="36.759" height="122.529" rx="18.379" transform="translate(244.182 500.048) rotate(30)" fill="#4fd1c5"/>
        <rect id="Rectangle_15" data-name="Rectangle 15" width="36.759" height="75.268" rx="18.379" transform="translate(37.634 354.764) rotate(30)" fill="#4fd1c5"/>
      </g>
      <g id="Group_3" data-name="Group 3" transform="translate(1265.06 701.669)">
        <rect id="Rectangle_10-2" data-name="Rectangle 10" width="36.759" height="546.129" rx="18.379" transform="translate(281.036 0) rotate(30)" fill="#4fd1c5"/>
        <ellipse id="Ellipse_3-2" data-name="Ellipse 3" cx="29.5" cy="28" rx="29.5" ry="28" transform="translate(-0.32 442.299)" fill="#4fd1c5"/>
      </g>
      <g id="Group_4" data-name="Group 4" transform="translate(988.01 787.439)">
        <rect id="Rectangle_10-3" data-name="Rectangle 10" width="36.759" height="546.129" rx="18.379" transform="translate(281.521 224.053) rotate(30)" fill="#4fd1c5"/>
        <circle id="Ellipse_3-3" data-name="Ellipse 3" cx="31.5" cy="31.5" r="31.5" transform="translate(-0.269 659.529)" fill="#4fd1c5"/>
        <circle id="Ellipse_5" data-name="Ellipse 5" cx="31.5" cy="31.5" r="31.5" transform="translate(263.731 203.529)" fill="#4fd1c5"/>
        <rect id="Rectangle_12" data-name="Rectangle 12" width="36.759" height="129.53" rx="18.379" transform="translate(405.801 0) rotate(30)" fill="#4fd1c5"/>
      </g>
      <g id="Group_5" data-name="Group 5" transform="translate(1064.136 717.423)">
        <rect id="Rectangle_10-4" data-name="Rectangle 10" width="36.759" height="546.129" rx="18.379" transform="translate(282.413 0) rotate(30)" fill="#4fd1c5"/>
        <ellipse id="Ellipse_3-4" data-name="Ellipse 3" cx="29.5" cy="29" rx="29.5" ry="29" transform="translate(-0.396 439.545)" fill="#4fd1c5"/>
      </g>
      <g id="Group_6" data-name="Group 6" transform="translate(871.948 864.587)">
        <rect id="Rectangle_10-5" data-name="Rectangle 10" width="36.759" height="546.129" rx="18.379" transform="translate(282.056 13.874) rotate(30)" fill="#4fd1c5"/>
        <ellipse id="Ellipse_3-5" data-name="Ellipse 3" cx="30.5" cy="28.5" rx="30.5" ry="28.5" transform="translate(-0.208 453.381)" fill="#4fd1c5"/>
        <ellipse id="Ellipse_4" data-name="Ellipse 4" cx="30.5" cy="31.5" rx="30.5" ry="31.5" transform="translate(259.792 0.381)" fill="#4fd1c5"/>
      </g>
      <g id="Group_7" data-name="Group 7" transform="translate(876.94 701.669)">
        <rect id="Rectangle_10-6" data-name="Rectangle 10" width="36.759" height="546.129" rx="18.379" transform="translate(280.565 0) rotate(30)" fill="#4fd1c5"/>
        <circle id="Ellipse_3-6" data-name="Ellipse 3" cx="28" cy="28" r="28" transform="translate(-0.199 442.299)" fill="#4fd1c5"/>
      </g>
      <circle id="Ellipse_6" data-name="Ellipse 6" cx="13" cy="13" r="13" transform="translate(1148.74 884.968)" fill="#fff"/>
      <ellipse id="Ellipse_7" data-name="Ellipse 7" cx="13" cy="15.5" rx="13" ry="15.5" transform="translate(894.74 1156.968)" fill="#fff"/>
      <ellipse id="Ellipse_8" data-name="Ellipse 8" cx="13" cy="15" rx="13" ry="15" transform="translate(1081.74 1169.968)" fill="#fff"/>
      <ellipse id="Ellipse_9" data-name="Ellipse 9" cx="13" cy="13.5" rx="13" ry="13.5" transform="translate(1271.74 1003.968)" fill="#fff"/>
      <ellipse id="Ellipse_10" data-name="Ellipse 10" cx="15" cy="16" rx="15" ry="16" transform="translate(1279.74 1325.968)" fill="#fff"/>
      <ellipse id="Ellipse_12" data-name="Ellipse 12" cx="15" cy="15.5" rx="15" ry="15.5" transform="translate(1279.74 1156.968)" fill="#fff"/>
      <ellipse id="Ellipse_13" data-name="Ellipse 13" cx="15" cy="16" rx="15" ry="16" transform="translate(885.74 1330.968)" fill="#fff"/>
      <ellipse id="Ellipse_15" data-name="Ellipse 15" cx="24" cy="26" rx="24" ry="26" transform="translate(974.74 1322.968)" fill="#4fd1c5"/>
      <ellipse id="Ellipse_16" data-name="Ellipse 16" cx="27.5" cy="27" rx="27.5" ry="27" transform="translate(1224.74 1214.968)" fill="#4fd1c5"/>
      <ellipse id="Ellipse_19" data-name="Ellipse 19" cx="27.5" cy="24" rx="27.5" ry="24" transform="translate(839.74 1241.968)" fill="#4fd1c5"/>
      <ellipse id="Ellipse_20" data-name="Ellipse 20" cx="21.5" cy="25" rx="21.5" ry="25" transform="translate(1297.74 927.968)" fill="#4fd1c5"/>
      <rect id="Rectangle_16" data-name="Rectangle 16" width="5.251" height="337.829" transform="translate(1491.622 998.428) rotate(30)" fill="#38b2ac"/>
      <rect id="Rectangle_17" data-name="Rectangle 17" width="5.251" height="413.097" transform="translate(1323.582 788.379) rotate(30)" fill="#38b2ac"/>
      <rect id="Rectangle_18" data-name="Rectangle 18" width="3.501" height="250.309" transform="translate(1215.057 1296.526) rotate(30)" fill="#38b2ac"/>
      <rect id="Rectangle_19" data-name="Rectangle 19" width="5.251" height="369.337" transform="translate(1111.782 811.134) rotate(30)" fill="#38b2ac"/>
    </g>
    <text id="ENCAPSULATED-2" data-name="ENCAPSULATED" transform="translate(161 639)" fill="#fff" font-size="239" font-family="SegoeUI-Bold, Segoe UI" font-weight="700" letter-spacing="0.4em"><tspan x="0" y="0">ENCAPSULATED</tspan></text>
  </g>
</svg>
