<svg xmlns="http://www.w3.org/2000/svg" width="36pt" height="45pt" viewBox="0 0 988.762 1088.317">
  <g id="Logo_open" data-name="Logo open" transform="translate(-1571.025 -67.43)">
    <g id="Group_11" data-name="Group 11" transform="translate(2520.56 716.607) rotate(138)">
      <g id="Rectangle_7" data-name="Rectangle 7" transform="translate(74.047 325.851) rotate(29)" fill="#4fd1c5" stroke="#fff" stroke-width="15">
        <rect width="317.902" height="468.578" rx="158.951" stroke="none"/>
        <rect x="7.5" y="7.5" width="302.902" height="453.578" rx="151.451" fill="none"/>
      </g>
      <g id="Path_4" data-name="Path 4" transform="translate(82.972 318.014) rotate(30)" fill="#4fd1c5">
        <path d="M 308.4019775390625 158.0782012939453 L 7.499988555908203 158.0782012939453 L 7.499988555908203 7.500008106231689 L 308.4019775390625 7.500008106231689 L 308.4019775390625 158.0782012939453 Z" stroke="none"/>
        <path d="M 15 15 L 15 150.5782165527344 L 300.9019775390625 150.5782165527344 L 300.9019775390625 15 L 15 15 M 0 0 L 315.9019775390625 0 L 315.9019775390625 165.5782165527344 L 0 165.5782165527344 L 0 0 Z" stroke="none" fill="#fff"/>
      </g>
      <rect id="Rectangle_22" data-name="Rectangle 22" width="24" height="287" transform="translate(11.99 469.046) rotate(-60)" fill="#4fd1c5"/>
      <g id="Group_1" data-name="Group 1" transform="translate(-165.529 464.299) rotate(2)">
        <rect id="Rectangle_3" data-name="Rectangle 3" width="18.613" height="173.333" rx="9.306" transform="matrix(0.875, 0.485, -0.485, 0.875, 350.965, 132.68)" fill="#fff"/>
        <rect id="Rectangle_11" data-name="Rectangle 11" width="18.613" height="84.922" rx="9.306" transform="matrix(0.875, 0.485, -0.485, 0.875, 390.698, 119.268)" fill="#fff"/>
      </g>
    </g>
    <g id="Group_12" data-name="Group 12" transform="translate(1955.321 273.755) rotate(19)">
      <g id="Rectangle_7-2" data-name="Rectangle 7" transform="translate(74.047 325.851) rotate(29)" fill="#38b2ac" stroke="#fff" stroke-width="15">
        <rect width="317.902" height="468.578" rx="158.951" stroke="none"/>
        <rect x="7.5" y="7.5" width="302.902" height="453.578" rx="151.451" fill="none"/>
      </g>
      <g id="Rectangle_20" data-name="Rectangle 20" transform="translate(82.972 318.014) rotate(30)" fill="#38b2ac" stroke="#fff" stroke-width="15">
        <rect width="315.902" height="165.578" stroke="none"/>
        <rect x="7.5" y="7.5" width="300.902" height="150.578" fill="none"/>
      </g>
      <rect id="Rectangle_21" data-name="Rectangle 21" width="286" height="103" rx="20" transform="translate(232.055 664.692) rotate(-151)" fill="#38b2ac"/>
      <g id="Group_8" data-name="Group 8" transform="translate(-1096.194 -22.251)">
        <g id="Group_10" data-name="Group 10" transform="translate(1027.165 430.684)">
          <g id="Group_2" data-name="Group 2" transform="translate(113.193 28.205)">
            <rect id="Rectangle_10" data-name="Rectangle 10" width="18.076" height="268.565" rx="9.038" transform="translate(227.167 55.292) rotate(30)" fill="#4fd1c5"/>
            <rect id="Rectangle_13" data-name="Rectangle 13" width="18.076" height="139.447" rx="9.038" transform="translate(69.724 239.372) rotate(30)" fill="#4fd1c5"/>
            <rect id="Rectangle_14" data-name="Rectangle 14" width="18.076" height="40.273" rx="9.038" transform="translate(69.942 325.451) rotate(30)" fill="#4fd1c5"/>
            <rect id="Rectangle_15" data-name="Rectangle 15" width="18.076" height="53.52" rx="9.038" transform="translate(68.278 0) rotate(30)" fill="#4fd1c5"/>
          </g>
          <g id="Group_3" data-name="Group 3" transform="translate(205.756 39.033)">
            <path id="Path_3" data-name="Path 3" d="M7.544,0a7.6,7.6,0,0,1,7.57,7.584l.352,209.838A7.557,7.557,0,1,1,.352,217.4L0,7.559A7.534,7.534,0,0,1,7.544,0Z" transform="translate(112.49 0) rotate(30)" fill="#4fd1c5"/>
          </g>
          <g id="Group_4" data-name="Group 4" transform="translate(70.074 42.178)">
            <rect id="Rectangle_10-2" data-name="Rectangle 10" width="18.076" height="268.565" rx="9.038" transform="translate(134.282 110.18) rotate(30)" fill="#4fd1c5"/>
            <rect id="Rectangle_12" data-name="Rectangle 12" width="18.076" height="63.698" rx="9.038" transform="translate(195.398 0) rotate(30)" fill="#4fd1c5"/>
          </g>
          <g id="Group_5" data-name="Group 5" transform="translate(107.948 7.747)">
            <rect id="Rectangle_10-3" data-name="Rectangle 10" width="18.076" height="268.565" rx="9.038" transform="translate(134.282 0) rotate(30)" fill="#4fd1c5"/>
          </g>
          <g id="Group_6" data-name="Group 6" transform="translate(13.262 86.939)">
            <rect id="Rectangle_10-4" data-name="Rectangle 10" width="18.076" height="268.565" rx="9.038" transform="translate(134.282 0) rotate(30)" fill="#4fd1c5"/>
          </g>
          <g id="Group_7" data-name="Group 7" transform="translate(14.984 62.54)">
            <rect id="Rectangle_10-5" data-name="Rectangle 10" width="13.398" height="199.051" rx="6.699" transform="translate(99.525 0) rotate(30)" fill="#4fd1c5"/>
          </g>
          <rect id="Rectangle_16" data-name="Rectangle 16" width="2.582" height="166.132" transform="translate(313.572 145.935) rotate(30)" fill="#38b2ac"/>
          <rect id="Rectangle_17" data-name="Rectangle 17" width="2.582" height="203.145" transform="translate(230.936 42.641) rotate(30)" fill="#38b2ac"/>
          <rect id="Rectangle_18" data-name="Rectangle 18" width="1.722" height="123.092" transform="translate(185.387 279.496) rotate(30)" fill="#38b2ac"/>
          <g id="Group_9" data-name="Group 9" transform="translate(0 117.604)">
            <circle id="Ellipse_1" data-name="Ellipse 1" cx="9.556" cy="9.556" r="9.556" transform="translate(191.998 126.841)" fill="#4fd1c5"/>
            <circle id="Ellipse_2" data-name="Ellipse 2" cx="9.556" cy="9.556" r="9.556" transform="translate(217.193)" fill="#4fd1c5"/>
            <circle id="Ellipse_3" data-name="Ellipse 3" cx="9.556" cy="9.556" r="9.556" transform="translate(92.09 136.397)" fill="#4fd1c5"/>
            <circle id="Ellipse_4" data-name="Ellipse 4" cx="9.556" cy="9.556" r="9.556" transform="translate(0 129.447)" fill="#4fd1c5"/>
            <circle id="Ellipse_5" data-name="Ellipse 5" cx="9.556" cy="9.556" r="9.556" transform="translate(191.998 211.111)" fill="#4fd1c5"/>
          </g>
        </g>
      </g>
    </g>
    <path id="code-solid" d="M237.506,454.776l-51.947-15.737c-5.45-1.6-8.516-7.557-6.983-13.247L294.819,7.739A10.179,10.179,0,0,1,307.507.449l51.947,15.737c5.45,1.6,8.516,7.557,6.983,13.248L250.195,447.486C248.577,453.176,242.956,456.466,237.506,454.776ZM140.424,355.02l37.044-41.254a11,11,0,0,0-.681-15.292L99.633,227.613l77.154-70.861a10.917,10.917,0,0,0,.681-15.292l-37.044-41.254a9.929,9.929,0,0,0-14.477-.445L3.232,219.788a10.919,10.919,0,0,0,0,15.559L125.947,355.464A9.857,9.857,0,0,0,140.424,355.02Zm278.642.534L541.781,235.437a10.919,10.919,0,0,0,0-15.559L419.066,99.672a10.006,10.006,0,0,0-14.477.445L367.545,141.37a11,11,0,0,0,.681,15.292l77.155,70.95-77.155,70.861a10.917,10.917,0,0,0-.681,15.292l37.044,41.254A9.932,9.932,0,0,0,419.066,355.553Z" transform="translate(2007.323 534.394) rotate(2)" fill="#fff" stroke="#4fd1c5" stroke-width="15"/>
  </g>
</svg>
