<?xml version="1.0" encoding="UTF-8"?>
<svg xmlns="http://www.w3.org/2000/svg" xmlns:xlink="http://www.w3.org/1999/xlink" width="36pt" height="45pt" viewBox="0 0 36 45" version="1.1">
<g id="surface1">
<path style=" stroke:none;fill-rule:nonzero;fill:rgb(30.980392%,81.960784%,77.254902%);fill-opacity:1;" d="M 7.898438 40.539062 C 7.382812 40.257812 6.894531 39.921875 6.449219 39.546875 C 6.015625 39.179688 5.617188 38.769531 5.265625 38.324219 C 4.921875 37.886719 4.617188 37.414062 4.359375 36.921875 C 4.109375 36.429688 3.902344 35.914062 3.75 35.382812 C 3.597656 34.855469 3.492188 34.308594 3.445312 33.757812 C 3.394531 33.207031 3.398438 32.644531 3.460938 32.09375 C 3.519531 31.535156 3.636719 30.976562 3.808594 30.4375 C 3.984375 29.886719 4.21875 29.347656 4.503906 28.835938 L 16.285156 7.816406 C 16.570312 7.308594 16.910156 6.824219 17.289062 6.386719 C 17.660156 5.957031 18.078125 5.5625 18.527344 5.214844 C 18.96875 4.875 19.445312 4.574219 19.945312 4.320312 C 20.441406 4.070312 20.964844 3.867188 21.5 3.714844 C 22.035156 3.5625 22.589844 3.460938 23.144531 3.414062 C 23.703125 3.363281 24.269531 3.371094 24.824219 3.429688 C 25.394531 3.488281 25.957031 3.605469 26.5 3.773438 C 27.058594 3.945312 27.605469 4.179688 28.121094 4.460938 C 28.636719 4.746094 29.125 5.078125 29.570312 5.457031 C 30.003906 5.824219 30.402344 6.234375 30.753906 6.679688 C 31.101562 7.113281 31.402344 7.585938 31.660156 8.082031 C 31.910156 8.570312 32.117188 9.089844 32.269531 9.617188 C 32.425781 10.148438 32.527344 10.695312 32.574219 11.242188 C 32.625 11.796875 32.621094 12.355469 32.5625 12.90625 C 32.5 13.46875 32.382812 14.027344 32.210938 14.5625 C 32.035156 15.117188 31.800781 15.65625 31.515625 16.167969 L 19.734375 37.183594 C 19.449219 37.695312 19.109375 38.175781 18.730469 38.617188 C 18.359375 39.046875 17.941406 39.4375 17.492188 39.789062 C 17.050781 40.128906 16.574219 40.429688 16.074219 40.679688 C 15.578125 40.929688 15.054688 41.132812 14.519531 41.285156 C 13.984375 41.4375 13.429688 41.539062 12.875 41.589844 C 12.316406 41.636719 11.75 41.632812 11.195312 41.574219 C 10.625 41.515625 10.0625 41.398438 9.519531 41.230469 C 8.960938 41.054688 8.414062 40.824219 7.898438 40.539062 Z M 7.898438 40.539062 "/>
<path style=" stroke:none;fill-rule:nonzero;fill:rgb(100%,100%,100%);fill-opacity:1;" d="M 28.019531 4.644531 C 23.921875 2.402344 18.742188 3.871094 16.472656 7.921875 L 4.691406 28.9375 C 2.421875 32.988281 3.90625 38.109375 8 40.355469 C 12.097656 42.601562 17.277344 41.132812 19.546875 37.082031 L 31.328125 16.0625 C 33.601562 12.011719 32.113281 6.890625 28.019531 4.644531 M 28.226562 4.277344 C 32.535156 6.636719 34.089844 12.007812 31.703125 16.269531 L 19.921875 37.285156 C 17.535156 41.546875 12.105469 43.085938 7.792969 40.726562 C 3.484375 38.363281 1.929688 32.996094 4.316406 28.734375 L 16.097656 7.714844 C 18.488281 3.453125 23.917969 1.914062 28.226562 4.277344 Z M 28.226562 4.277344 "/>
<path style=" stroke:none;fill-rule:nonzero;fill:rgb(100%,100%,100%);fill-opacity:1;" d="M 18.449219 7.105469 C 18.65625 7.21875 18.730469 7.472656 18.617188 7.675781 L 15.203125 13.765625 C 15.089844 13.96875 14.832031 14.039062 14.625 13.929688 C 14.421875 13.816406 14.347656 13.5625 14.460938 13.359375 L 17.875 7.269531 C 17.988281 7.066406 18.246094 6.992188 18.449219 7.105469 Z M 18.449219 7.105469 "/>
<path style=" stroke:none;fill-rule:nonzero;fill:rgb(21.960784%,69.803922%,67.45098%);fill-opacity:1;" d="M 20.140625 18.691406 C 24.242188 20.941406 25.722656 26.050781 23.449219 30.105469 L 19.546875 37.066406 C 17.273438 41.121094 12.105469 42.585938 8.007812 40.339844 C 3.90625 38.089844 2.421875 32.980469 4.695312 28.925781 L 8.597656 21.964844 C 10.871094 17.910156 16.039062 16.445312 20.140625 18.691406 Z M 20.140625 18.691406 "/>
<path style="fill:none;stroke-width:8;stroke-linecap:butt;stroke-linejoin:miter;stroke:rgb(21.960784%,69.803922%,67.45098%);stroke-opacity:1;stroke-miterlimit:4;" d="M 158.942196 4.039378 C 244.556548 4.021042 313.939319 73.37626 313.893657 158.976859 L 313.888341 309.666726 C 313.906643 395.231869 244.544178 464.544716 158.929825 464.563051 C 73.379437 464.545931 3.996667 395.190713 3.978364 309.62557 L 3.983681 158.935703 C 3.965378 73.37056 73.391808 4.022257 158.942196 4.039378 Z M 158.942196 4.039378 " transform="matrix(0.0467156,0.0256061,-0.0258949,0.0461947,12.714677,14.622412)"/>
<path style=" stroke:none;fill-rule:nonzero;fill:rgb(100%,100%,100%);fill-opacity:1;" d="M 20.257812 6.503906 C 20.464844 6.613281 20.535156 6.871094 20.421875 7.070312 L 18.960938 9.683594 C 18.847656 9.882812 18.589844 9.957031 18.382812 9.84375 C 18.179688 9.734375 18.105469 9.476562 18.21875 9.277344 L 19.683594 6.664062 C 19.796875 6.464844 20.054688 6.390625 20.257812 6.503906 Z M 20.257812 6.503906 "/>
<path style=" stroke:none;fill-rule:nonzero;fill:rgb(30.980392%,81.960784%,77.254902%);fill-opacity:1;" d="M 25.722656 21.335938 C 25.988281 21.488281 26.082031 21.824219 25.925781 22.085938 L 18.226562 35.277344 C 18.074219 35.539062 17.734375 35.628906 17.46875 35.476562 C 17.203125 35.324219 17.113281 34.988281 17.265625 34.726562 L 24.964844 21.539062 C 25.117188 21.273438 25.457031 21.183594 25.722656 21.335938 Z M 25.722656 21.335938 "/>
<path style=" stroke:none;fill-rule:nonzero;fill:rgb(30.980392%,81.960784%,77.254902%);fill-opacity:1;" d="M 16.042969 32.527344 C 16.308594 32.679688 16.402344 33.015625 16.246094 33.277344 L 12.515625 39.667969 C 12.363281 39.929688 12.023438 40.019531 11.757812 39.871094 C 11.492188 39.71875 11.402344 39.382812 11.554688 39.117188 L 15.285156 32.730469 C 15.4375 32.464844 15.777344 32.375 16.042969 32.527344 Z M 16.042969 32.527344 "/>
<path style=" stroke:none;fill-rule:nonzero;fill:rgb(30.980392%,81.960784%,77.254902%);fill-opacity:1;" d="M 16.058594 37.761719 C 16.324219 37.914062 16.414062 38.25 16.261719 38.511719 L 15.578125 39.679688 C 15.425781 39.941406 15.085938 40.03125 14.820312 39.882812 C 14.554688 39.730469 14.464844 39.394531 14.617188 39.128906 L 15.300781 37.960938 C 15.453125 37.699219 15.792969 37.609375 16.058594 37.761719 Z M 16.058594 37.761719 "/>
<path style=" stroke:none;fill-rule:nonzero;fill:rgb(30.980392%,81.960784%,77.254902%);fill-opacity:1;" d="M 15.957031 17.976562 C 16.222656 18.128906 16.3125 18.464844 16.160156 18.726562 L 15.070312 20.59375 C 14.917969 20.855469 14.578125 20.945312 14.308594 20.792969 C 14.042969 20.640625 13.953125 20.304688 14.105469 20.042969 L 15.195312 18.175781 C 15.351562 17.914062 15.691406 17.824219 15.957031 17.976562 Z M 15.957031 17.976562 "/>
<path style=" stroke:none;fill-rule:nonzero;fill:rgb(30.980392%,81.960784%,77.254902%);fill-opacity:1;" d="M 25.722656 16.261719 C 25.988281 16.414062 26.082031 16.75 25.925781 17.011719 L 18.226562 30.199219 C 18.074219 30.460938 17.734375 30.550781 17.46875 30.402344 L 17.46875 30.398438 C 17.203125 30.25 17.113281 29.914062 17.265625 29.648438 L 24.964844 16.460938 C 25.117188 16.199219 25.457031 16.109375 25.722656 16.261719 Z M 25.722656 16.261719 "/>
<path style=" stroke:none;fill-rule:nonzero;fill:rgb(30.980392%,81.960784%,77.254902%);fill-opacity:1;" d="M 17.363281 25.523438 C 17.628906 25.675781 17.71875 26.011719 17.566406 26.273438 L 9.867188 39.460938 C 9.710938 39.726562 9.371094 39.816406 9.105469 39.664062 C 8.839844 39.511719 8.75 39.175781 8.902344 38.914062 L 16.605469 25.722656 C 16.757812 25.460938 17.097656 25.371094 17.363281 25.523438 Z M 17.363281 25.523438 "/>
<path style=" stroke:none;fill-rule:nonzero;fill:rgb(30.980392%,81.960784%,77.254902%);fill-opacity:1;" d="M 21.121094 18.824219 C 21.386719 18.976562 21.476562 19.3125 21.324219 19.574219 L 19.921875 21.976562 C 19.769531 22.238281 19.429688 22.332031 19.160156 22.179688 C 18.894531 22.027344 18.804688 21.691406 18.957031 21.429688 L 20.359375 19.027344 C 20.515625 18.761719 20.855469 18.671875 21.121094 18.824219 Z M 21.121094 18.824219 "/>
<path style=" stroke:none;fill-rule:nonzero;fill:rgb(30.980392%,81.960784%,77.254902%);fill-opacity:1;" d="M 19.691406 16.730469 C 19.957031 16.882812 20.046875 17.21875 19.894531 17.480469 L 12.195312 30.671875 C 12.042969 30.933594 11.703125 31.023438 11.433594 30.871094 C 11.167969 30.71875 11.078125 30.382812 11.230469 30.121094 L 18.933594 16.933594 C 19.085938 16.667969 19.425781 16.578125 19.691406 16.730469 Z M 19.691406 16.730469 "/>
<path style=" stroke:none;fill-rule:nonzero;fill:rgb(30.980392%,81.960784%,77.254902%);fill-opacity:1;" d="M 13.871094 21.546875 C 14.136719 21.699219 14.226562 22.035156 14.074219 22.296875 L 6.375 35.484375 C 6.21875 35.746094 5.878906 35.835938 5.613281 35.6875 C 5.347656 35.535156 5.257812 35.199219 5.410156 34.933594 L 13.109375 21.746094 C 13.265625 21.484375 13.605469 21.394531 13.871094 21.546875 Z M 13.871094 21.546875 "/>
<path style=" stroke:none;fill-rule:nonzero;fill:rgb(30.980392%,81.960784%,77.254902%);fill-opacity:1;" d="M 13.976562 16.261719 C 14.242188 16.414062 14.332031 16.75 14.179688 17.011719 L 6.480469 30.199219 C 6.324219 30.460938 5.984375 30.550781 5.71875 30.402344 L 5.71875 30.398438 C 5.453125 30.25 5.363281 29.914062 5.515625 29.648438 L 13.214844 16.460938 C 13.371094 16.199219 13.710938 16.109375 13.976562 16.261719 Z M 13.976562 16.261719 "/>
<path style=" stroke:none;fill-rule:nonzero;fill:rgb(21.960784%,69.803922%,67.45098%);fill-opacity:1;" d="M 23.597656 24.859375 L 23.734375 24.9375 L 18.625 33.683594 L 18.488281 33.605469 Z M 23.597656 24.859375 "/>
<path style=" stroke:none;fill-rule:nonzero;fill:rgb(21.960784%,69.803922%,67.45098%);fill-opacity:1;" d="M 18.515625 18.578125 L 18.652344 18.65625 L 12.410156 29.351562 L 12.269531 29.273438 Z M 18.515625 18.578125 "/>
<path style=" stroke:none;fill-rule:nonzero;fill:rgb(21.960784%,69.803922%,67.45098%);fill-opacity:1;" d="M 15.714844 32.976562 L 15.808594 33.03125 L 12.023438 39.511719 L 11.929688 39.457031 Z M 15.714844 32.976562 "/>
<path style=" stroke:none;fill-rule:nonzero;fill:rgb(21.960784%,69.803922%,67.45098%);fill-opacity:1;" d="M 12.113281 19.257812 L 12.25 19.335938 L 6.667969 28.898438 L 6.527344 28.820312 Z M 12.113281 19.257812 "/>
<path style=" stroke:none;fill-rule:nonzero;fill:rgb(30.980392%,81.960784%,77.254902%);fill-opacity:1;" d="M 17.296875 31.429688 C 17.296875 31.75 17.035156 32.007812 16.710938 32.007812 C 16.382812 32.007812 16.121094 31.75 16.121094 31.429688 C 16.121094 31.105469 16.382812 30.847656 16.710938 30.847656 C 17.035156 30.847656 17.296875 31.105469 17.296875 31.429688 Z M 17.296875 31.429688 "/>
<path style=" stroke:none;fill-rule:nonzero;fill:rgb(30.980392%,81.960784%,77.254902%);fill-opacity:1;" d="M 18.847656 23.714844 C 18.847656 24.039062 18.582031 24.296875 18.257812 24.296875 C 17.933594 24.296875 17.671875 24.039062 17.671875 23.714844 C 17.671875 23.394531 17.933594 23.136719 18.257812 23.136719 C 18.582031 23.136719 18.847656 23.394531 18.847656 23.714844 Z M 18.847656 23.714844 "/>
<path style=" stroke:none;fill-rule:nonzero;fill:rgb(30.980392%,81.960784%,77.254902%);fill-opacity:1;" d="M 11.15625 32.007812 C 11.15625 32.328125 10.890625 32.589844 10.566406 32.589844 C 10.242188 32.589844 9.980469 32.328125 9.980469 32.007812 C 9.980469 31.6875 10.242188 31.429688 10.566406 31.429688 C 10.890625 31.429688 11.15625 31.6875 11.15625 32.007812 Z M 11.15625 32.007812 "/>
<path style=" stroke:none;fill-rule:nonzero;fill:rgb(30.980392%,81.960784%,77.254902%);fill-opacity:1;" d="M 5.492188 31.585938 C 5.492188 31.90625 5.230469 32.167969 4.90625 32.167969 C 4.582031 32.167969 4.316406 31.90625 4.316406 31.585938 C 4.316406 31.265625 4.582031 31.003906 4.90625 31.003906 C 5.230469 31.003906 5.492188 31.265625 5.492188 31.585938 Z M 5.492188 31.585938 "/>
<path style=" stroke:none;fill-rule:nonzero;fill:rgb(30.980392%,81.960784%,77.254902%);fill-opacity:1;" d="M 17.296875 36.550781 C 17.296875 36.871094 17.035156 37.132812 16.710938 37.132812 C 16.382812 37.132812 16.121094 36.871094 16.121094 36.550781 C 16.121094 36.230469 16.382812 35.96875 16.710938 35.96875 C 17.035156 35.96875 17.296875 36.230469 17.296875 36.550781 Z M 17.296875 36.550781 "/>
</g>
</svg>
